# xmcd
#
# Track frame offsets:
#	150
#	12177
#	23597
#	32505
#	41992
#	52337
#	63747
#	74880
#	85790
#	96042
#	105587
#	116237
#	125012
#	137165
#	149455
#	161335
#	171737
#	181720
#	197215
#	206809
#
# Disc length: 2913 seconds
#
# Revision: 0
# Processed by: cddbd v1.4PL0 Copyright (c) Steve Scherf et al.
# Submitted via: dBpowerAMP V4.0
#
DISCID=340b5f14
DTITLE=Various Artist - For Millionairs Only 4
DYEAR=1900
DGENRE=
TTITLE0=Turbines - We Got To Start Over
TTITLE1=Sonny Fishback - Heart Breaking Man
TTITLE2=Don Gardner - Cheatin' Kind
TTITLE3=Johnny James - Tell You About My Girl (Ain't That Lovin')
TTITLE4=Unknown Female - You'll Always Been My Style
TTITLE5=Montclairs - Hey You, Don't Fight
TTITLE6=Cody Black - It's Our Time To Fall In Love
TTITLE7=Tony Daniels - I Won't Cry
TTITLE8=Little Nicky Soul - I Wanted To Tell You
TTITLE9=Pee Wee, Shuck And Huey - Beside Myself (You're All I've Got)
TTITLE10=Stunners - Without You
TTITLE11=Modern Soul Trio - You Ain't No Good
TTITLE12=Matadors - Say Yes Baby
TTITLE13=Clevland Robinson - Boy
TTITLE14=Mr.Soul - What Happend To Yesterday
TTITLE15=Carssors - I Can't Stay Away
TTITLE16=Phil Flowers and The Underdogs - Discontented
TTITLE17=Bobby Williams - Every Lie You Tell
TTITLE18=Nat Hall - Why (I Want To Know)
TTITLE19=Willie Mason and All The Kings Men - Why
EXTD=tim1701
EXTT0=
EXTT1=
EXTT2=
EXTT3=
EXTT4=
EXTT5=
EXTT6=
EXTT7=
EXTT8=
EXTT9=
EXTT10=
EXTT11=
EXTT12=
EXTT13=
EXTT14=
EXTT15=
EXTT16=
EXTT17=
EXTT18=
EXTT19=
PLAYORDER=
